<?xml version="1.0" encoding="utf-8"?>
<svg xmlns="http://www.w3.org/2000/svg" fill="none" height="41" viewBox="0 0 107 41" width="107">
<path d="M30.5163 0.650391L32.1974 2.31529V3.52772L30.2901 5.43511V2.80776L30.0476 2.56528H28.9639L28.7214 2.80776V9.99359L28.9639 10.2436H30.0476L30.2901 9.99359V8.88615L32.1974 6.97877V10.4711L30.5163 12.1522H28.4952L26.8053 10.4711V2.31529L28.4952 0.650391L30.5163 0.650391Z" fill="#262D3D"/>
<path d="M35.0924 0.650391V10.2461H37.9697L37.606 12.1535H33.1763V1.24036L33.0625 0.650391H35.0912L35.0924 0.650391Z" fill="#262D3D"/>
<path d="M43.0706 0.65042V2.56656H40.6695V5.08016H42.5931V6.76131H40.6695V10.2449H43.0706V12.1522H38.7533V1.36913L38.6396 0.64917H43.0693L43.0706 0.65042Z" fill="#262D3D"/>
<path d="M49.9577 0.650391L48.2928 12.1535H46.1755L45.1005 10.7148L43.7344 0.650391H45.6505L46.8554 10.1161L48.0516 0.650391H49.959H49.9577Z" fill="#262D3D"/>
<path d="M55.0349 0.65042V2.56656H52.6338V5.08016H54.5574V6.76131H52.6338V10.2449H55.0349V12.1522H50.7177V1.36913L50.6039 0.64917H55.0336L55.0349 0.65042Z" fill="#262D3D"/>
<path d="M57.9284 0.650391V10.2461H60.7983L60.442 12.1535H56.0123V1.24036L55.8986 0.650391L57.9284 0.650391Z" fill="#262D3D"/>
<path d="M65.8905 0.650391L67.5717 12.1535H65.6481L65.3568 9.88234H63.5294L63.2469 12.1535H61.3308L62.8832 1.37035L62.7695 0.650391L65.8905 0.650391ZM63.7732 7.92621H65.1156L64.4606 2.68027L63.7732 7.92621Z" fill="#262D3D"/>
<path d="M73.6838 12.1535H71.8889L70.0865 5.91258V12.1535H68.1791V1.37035L68.0504 0.650391H69.974L71.7689 6.50254V0.650391H73.6851L73.6838 12.1535Z" fill="#262D3D"/>
<path d="M80.1497 2.31529V10.6011L78.5811 12.1535H74.6275V1.33785L74.5138 0.650391H78.4673L80.1497 2.31529ZM78.2023 2.80901L77.9598 2.56653H76.5862V10.2461H78.0248L78.2673 9.99609L78.2023 2.80901Z" fill="#262D3D"/>
<path d="M8.43268 16.3569L11.99 19.8817V22.4366L7.94771 26.4701V20.9167L7.43024 20.3992H5.15038L4.64166 20.9167V36.097L5.15038 36.6145H7.43024L7.94771 36.097V33.7534L11.99 29.7199V37.1007L8.43268 40.6492H4.14794L0.599396 37.1007V19.883L4.14794 16.3582H8.43268V16.3569Z" fill="#262D3D"/>
<path d="M22.6106 16.3569L26.1591 40.648H22.1169L21.5106 35.8545H17.6309L17.0247 40.648H12.9824L16.2647 17.8768L16.0222 16.3569H22.6106ZM18.1483 31.7798H20.9694L19.5708 20.6404L18.1483 31.7798Z" fill="#262D3D"/>
<path d="M38.3097 16.3569L34.7849 40.648H30.3227L28.0428 37.6169L25.1655 16.3569H29.199L31.7451 36.3395L34.2675 16.3569H38.3097Z" fill="#262D3D"/>
<path d="M47.0554 16.3569L50.6039 40.648H46.5617L45.9554 35.8545H42.0757L41.4695 40.648H37.4272L40.7095 17.8768L40.4583 16.3569H47.0554ZM42.5856 31.7798H45.4155L44.0168 20.6404L42.5856 31.7798Z" fill="#262D3D"/>
<path d="M56.0687 16.3569V36.6145H62.1396L61.3796 40.648H52.0351V17.6019L51.7927 16.3569H56.0687Z" fill="#262D3D"/>
<path d="M67.8467 16.3569V40.648H63.8132V17.8768L63.5382 16.3569H67.8467Z" fill="#262D3D"/>
<path d="M79.026 16.3569V20.3992H73.95V25.7101H78.0248V29.2674H73.95V36.6157H79.026V40.6492H69.9152V17.8781L69.6728 16.3582H79.026V16.3569Z" fill="#262D3D"/>
<path d="M89.1954 16.3569L92.7527 19.8817V25.9526L89.4141 28.2L92.7527 32.541V40.6242H88.7104V34.0609L86.2206 30.3261L85.1531 31.0298V40.6492H81.1109V17.8781L80.8684 16.3582L89.1954 16.3569ZM85.1544 26.9863L88.7117 24.4402V20.9154L88.1942 20.3979H85.1544V26.9863Z" fill="#262D3D"/>
<path d="M102.372 23.9478V20.9167L101.855 20.3992H99.3323L98.8148 20.9167V23.9478L106.406 30.0262V37.0995L102.89 40.648H98.3298L94.7813 37.0995V30.0262L98.8148 32.5398V36.097L99.3323 36.6145H101.855L102.372 36.097V32.0548L94.7813 25.9514V19.8805L98.3298 16.3557H102.89L106.406 19.8805V26.4689L102.372 23.9478Z" fill="#262D3D"/>
</svg>