<?xml version="1.0" encoding="utf-8"?>
<svg xmlns="http://www.w3.org/2000/svg" fill="none" height="30" viewBox="0 0 79 30" width="79">
<mask height="30" id="mask0_725_15" maskUnits="userSpaceOnUse" style="mask-type:luminance" width="79" x="0" y="0">
<path d="M0.327637 0H78.8827V29.999H0.327637V0Z" fill="white"/>
</mask>
<g mask="url(#mask0_725_15)">
<path d="M15.988 7.63281L15.6929 9.99358L5.90393 20.2507C5.90393 20.2507 9.83176 19.9861 15.8456 24.5347C21.8594 29.0832 28.5042 26.3968 31.5569 23.4764L33.6022 25.5624C33.6022 25.5624 24.7086 35.4838 11.7855 25.654C11.7855 25.654 8.77348 23.3848 6.73834 23.3848C4.70319 23.3848 0.327637 23.3645 0.327637 23.3645L0.683787 21.4107L10.5644 10.8382H3.16666L3.95019 7.71422L15.8049 7.64299" fill="#262D3D"/>
<path d="M25.84 10.1453C27.7938 10.7762 28.5976 13.6661 27.6615 16.6069C26.7253 19.5477 24.3645 21.4302 22.4006 20.7993C20.4367 20.1684 19.643 17.2785 20.5792 14.3377C21.5255 11.3969 23.8863 9.5144 25.84 10.1453ZM23.9575 7.35714C23.9575 7.35714 17.4451 8.56805 16.397 15.8844C15.3489 23.2007 23.2452 25.6429 27.5699 22.3969C31.9251 19.1406 33.5634 12.679 29.8391 8.73087C29.8289 8.71052 27.9973 6.68555 23.9575 7.35714Z" fill="#262D3D"/>
<path d="M47.6768 12.6789C46.8424 17.8176 37.4909 16.7593 37.4909 16.7593C37.1958 17.4818 37.5316 18.5299 37.5316 18.5299C40.1162 23.1497 45.4585 19.6899 45.4585 19.6899L45.7943 22.6104C44.6037 23.7297 32.7796 25.9989 33.7869 16.8204C34.7943 7.66222 42.4465 7.14326 42.4465 7.14326C43.7897 6.98045 48.5112 7.56046 47.6768 12.6789ZM43.3216 10.2062C43.3216 10.2062 39.465 8.79173 37.8674 14.0017C37.8674 14.0017 44.8276 14.7649 44.3493 11.4679C44.329 11.4476 44.1764 10.4605 43.3216 10.2062Z" fill="#262D3D"/>
<path d="M50.0554 7.85578C50.1267 7.85578 49.5161 10.6134 49.5161 10.6134H51.653L50.2182 18.4283C50.2182 18.4283 49.0277 23.272 52.6909 23.7299C56.3542 24.1878 56.3542 23.3229 56.3542 23.3229L56.4458 20.4533C56.4458 20.4533 53.3931 21.4404 53.8408 18.5708C54.2885 15.7013 55.3875 10.6032 55.3875 10.6032H58.9083L59.6308 7.66244L55.9675 7.70314L56.751 3.51074C56.751 3.51074 52.5994 4.7013 52.7316 4.7013C52.8639 4.7013 52.2839 7.75402 52.2839 7.75402L50.0554 7.85578Z" fill="#262D3D"/>
<path d="M67.0555 4.34841C67.7851 3.26793 67.5837 1.85666 66.6057 1.19623C65.6277 0.535795 64.2434 0.87631 63.5138 1.95679C62.7842 3.03726 62.9855 4.44854 63.9635 5.10897C64.9415 5.76939 66.3259 5.42888 67.0555 4.34841Z" fill="#262D3D"/>
<path d="M62.6223 7.67285L59.6611 23.3435H63.4974L66.4382 7.6932L62.6223 7.67285Z" fill="#262D3D"/>
<path d="M77.865 18.6718C77.8446 18.8956 77.8039 19.1093 77.7531 19.323C75.7993 26.1916 66.458 22.9863 66.458 22.9863L67.5773 20.3202C68.1574 20.6153 69.7142 20.9511 69.7142 20.9511C73.8456 21.694 74.7207 18.4581 72.1157 16.7587C71.8206 16.5654 71.5052 16.4026 71.1694 16.2601C70.8743 16.138 70.5792 15.9956 70.2943 15.8328C68.1574 14.3471 68.2998 12.373 68.4117 11.6811C68.4219 11.5895 68.4423 11.4979 68.483 11.4165C70.2841 5.12789 78.8826 8.06868 78.8826 8.06868L77.8446 10.5109C77.3053 10.2463 75.8706 9.93083 75.8706 9.93083C72.482 9.32029 71.4746 11.6098 73.001 13.2074C73.4386 13.6551 73.9677 13.9909 74.5477 14.1945C77.3562 15.2934 77.8243 17.6033 77.8955 18.3869C77.8853 18.4784 77.8752 18.57 77.865 18.6718Z" fill="#262D3D"/>
</g>
</svg>